<svg width="1280" height="640" viewBox="0 0 1280 640" xmlns="http://www.w3.org/2000/svg">
  <defs>
    <linearGradient id="bg" x1="0" y1="0" x2="1" y2="1">
      <stop offset="0" stop-color="#0d0f1a"/>
      <stop offset="1" stop-color="#1a2140"/>
    </linearGradient>
    <linearGradient id="iconbg" x1="0" y1="0" x2="0" y2="1">
      <stop offset="0" stop-color="#6f8ff7"/>
      <stop offset="1" stop-color="#2e4fd8"/>
    </linearGradient>
    <radialGradient id="glow" cx="0.25" cy="0.2" r="0.8">
      <stop offset="0" stop-color="#3d5af1" stop-opacity="0.25"/>
      <stop offset="1" stop-color="#3d5af1" stop-opacity="0"/>
    </radialGradient>
  </defs>
  <rect width="1280" height="640" fill="url(#bg)"/>
  <rect width="1280" height="640" fill="url(#glow)"/>

  <!-- App icon A1, 144 px -->
  <g transform="translate(96,118) scale(0.28125)">
    <rect width="512" height="512" rx="115" fill="url(#iconbg)"/>
    <rect x="84" y="100" width="200" height="312" rx="22" fill="#141726"/>
    <rect x="304" y="100" width="124" height="148" rx="22" fill="#141726"/>
    <rect x="304" y="264" width="124" height="148" rx="22" fill="#141726"/>
    <path d="M122 168 l44 38 -44 38" stroke="#ffffff" stroke-width="20" fill="none" stroke-linecap="round" stroke-linejoin="round"/>
    <rect x="184" y="230" width="62" height="16" rx="8" fill="#ffffff"/>
    <rect x="332" y="150" width="52" height="12" rx="6" fill="#47548f"/>
    <rect x="332" y="178" width="34" height="12" rx="6" fill="#47548f"/>
    <rect x="332" y="314" width="46" height="12" rx="6" fill="#47548f"/>
    <rect x="332" y="342" width="58" height="12" rx="6" fill="#47548f"/>
  </g>

  <text x="96" y="368" font-family="Helvetica Neue, Helvetica, Arial, sans-serif" font-size="76" font-weight="700" fill="#ffffff">Stackgrid</text>
  <text x="96" y="426" font-family="Helvetica Neue, Helvetica, Arial, sans-serif" font-size="27" fill="#a7b0d8">A minimal macOS terminal for AI agent CLIs</text>
  <text x="96" y="470" font-family="Helvetica Neue, Helvetica, Arial, sans-serif" font-size="21" fill="#5d6690">Split panes · Themes · Real PTY</text>
  <text x="96" y="504" font-family="Helvetica Neue, Helvetica, Arial, sans-serif" font-size="21" fill="#5d6690">Tauri 2 + xterm.js + Preact</text>

  <!-- Split-pane terminal mock -->
  <g transform="translate(672,104)">
    <rect width="512" height="432" rx="18" fill="#10131f" stroke="#262c4a" stroke-width="1.5"/>
    <circle cx="28" cy="26" r="7" fill="#ff5f57"/>
    <circle cx="52" cy="26" r="7" fill="#febc2e"/>
    <circle cx="76" cy="26" r="7" fill="#28c840"/>
    <line x1="0" y1="52" x2="512" y2="52" stroke="#1c2138" stroke-width="1.5"/>
    <line x1="300" y1="52" x2="300" y2="430" stroke="#1c2138" stroke-width="1.5"/>
    <line x1="300" y1="242" x2="512" y2="242" stroke="#1c2138" stroke-width="1.5"/>

    <!-- left pane -->
    <path d="M24 86 l14 12 -14 12" stroke="#7aa2f7" stroke-width="5" fill="none" stroke-linecap="round" stroke-linejoin="round"/>
    <text x="52" y="104" font-family="Menlo, Monaco, monospace" font-size="17" fill="#c0caf5">claude</text>
    <rect x="24" y="128" width="180" height="10" rx="5" fill="#33395c"/>
    <rect x="24" y="152" width="140" height="10" rx="5" fill="#33395c"/>
    <rect x="24" y="176" width="210" height="10" rx="5" fill="#2a3052"/>
    <rect x="24" y="200" width="120" height="10" rx="5" fill="#2a3052"/>
    <rect x="24" y="236" width="34" height="14" rx="4" fill="#7aa2f7"/>

    <!-- right top pane -->
    <path d="M324 86 l14 12 -14 12" stroke="#9ece6a" stroke-width="5" fill="none" stroke-linecap="round" stroke-linejoin="round"/>
    <text x="352" y="104" font-family="Menlo, Monaco, monospace" font-size="17" fill="#c0caf5">codex</text>
    <rect x="324" y="128" width="120" height="10" rx="5" fill="#33395c"/>
    <rect x="324" y="152" width="90" height="10" rx="5" fill="#2a3052"/>

    <!-- right bottom pane -->
    <path d="M324 276 l14 12 -14 12" stroke="#bb9af7" stroke-width="5" fill="none" stroke-linecap="round" stroke-linejoin="round"/>
    <text x="352" y="294" font-family="Menlo, Monaco, monospace" font-size="17" fill="#c0caf5">gemini</text>
    <rect x="324" y="318" width="130" height="10" rx="5" fill="#33395c"/>
    <rect x="324" y="342" width="100" height="10" rx="5" fill="#2a3052"/>
  </g>
</svg>
